<?xml version="1.0" encoding="UTF-8" standalone="no"?>
<!-- Generator: Adobe Illustrator 16.0.0, SVG Export Plug-In . SVG Version: 6.00 Build 0)  -->

<svg
   xmlns:dc="http://purl.org/dc/elements/1.1/"
   xmlns:cc="http://creativecommons.org/ns#"
   xmlns:rdf="http://www.w3.org/1999/02/22-rdf-syntax-ns#"
   xmlns:svg="http://www.w3.org/2000/svg"
   xmlns="http://www.w3.org/2000/svg"
   xmlns:sodipodi="http://sodipodi.sourceforge.net/DTD/sodipodi-0.dtd"
   xmlns:inkscape="http://www.inkscape.org/namespaces/inkscape"
   version="1.1"
   id="Capa_1"
   x="0px"
   y="0px"
   width="20"
   height="20"
   viewBox="0 0 20 20"
   xml:space="preserve"
   inkscape:version="0.48.4 r9939"
   sodipodi:docname="cart.svg"><metadata
     id="metadata55"><rdf:RDF><cc:Work
         rdf:about=""><dc:format>image/svg+xml</dc:format><dc:type
           rdf:resource="http://purl.org/dc/dcmitype/StillImage" /></cc:Work></rdf:RDF></metadata><defs
     id="defs53" /><sodipodi:namedview
     pagecolor="#ffffff"
     bordercolor="#666666"
     borderopacity="1"
     objecttolerance="10"
     gridtolerance="10"
     guidetolerance="10"
     inkscape:pageopacity="0"
     inkscape:pageshadow="2"
     inkscape:window-width="1366"
     inkscape:window-height="715"
     id="namedview51"
     showgrid="false"
     fit-margin-top="0"
     fit-margin-left="0"
     fit-margin-right="0"
     fit-margin-bottom="0"
     inkscape:zoom="7.375"
     inkscape:cx="16"
     inkscape:cy="16"
     inkscape:window-x="0"
     inkscape:window-y="28"
     inkscape:window-maximized="1"
     inkscape:current-layer="Capa_1" /><g
     id="g3"
     transform="scale(0.625,0.625)"><g
       id="g5"><path
         d="M 29,0 H 3 C 1.346,0 0,1.346 0,3 v 26 c 0,1.654 1.346,3 3,3 h 26 c 1.654,0 3,-1.346 3,-3 V 3 C 32,1.346 30.654,0 29,0 z m 1,29 c 0,0.551 -0.449,1 -1,1 H 3 C 2.449,30 2,29.551 2,29 V 3 C 2,2.448 2.449,2 3,2 h 26 c 0.551,0 1,0.448 1,1 v 26 z"
         id="path7"
         inkscape:connector-curvature="0" /><path
         d="M 9.401,7 H 6.676 C 6.325,7 6.038,7.287 6.038,7.639 v 2.723 c 0,0.354 0.287,0.641 0.638,0.641 h 2.725 c 0.351,0 0.638,-0.287 0.638,-0.641 V 7.639 C 10.039,7.287 9.752,7 9.401,7 z"
         id="path9"
         inkscape:connector-curvature="0" /><rect
         x="11.539"
         y="8.0620003"
         width="14.422"
         height="1.875"
         id="rect11" /><path
         d="M 9.401,14 H 6.676 c -0.351,0 -0.638,0.287 -0.638,0.639 v 2.726 c 0,0.351 0.287,0.638 0.638,0.638 h 2.725 c 0.351,0 0.638,-0.287 0.638,-0.638 V 14.639 C 10.039,14.287 9.752,14 9.401,14 z"
         id="path13"
         inkscape:connector-curvature="0" /><rect
         x="11.539"
         y="15.062"
         width="14.422"
         height="1.875"
         id="rect15" /><path
         d="M 9.401,21 H 6.676 c -0.351,0 -0.638,0.287 -0.638,0.639 v 2.727 c 0,0.351 0.287,0.638 0.638,0.638 h 2.725 c 0.351,0 0.638,-0.287 0.638,-0.638 V 21.639 C 10.039,21.287 9.752,21 9.401,21 z m 0.138,3.361 c 0,0.074 -0.063,0.139 -0.138,0.139 H 6.676 c -0.075,0 -0.138,-0.062 -0.138,-0.139 v -2.727 c 0,-0.072 0.063,-0.138 0.138,-0.138 h 2.725 c 0.075,0 0.138,0.062 0.138,0.138 v 2.727 z"
         id="path17"
         inkscape:connector-curvature="0" /><rect
         x="11.539"
         y="22.062"
         width="14.422"
         height="1.875"
         id="rect19" /></g></g><g
     id="g21"
     transform="translate(0,-12)" /><g
     id="g23"
     transform="translate(0,-12)" /><g
     id="g25"
     transform="translate(0,-12)" /><g
     id="g27"
     transform="translate(0,-12)" /><g
     id="g29"
     transform="translate(0,-12)" /><g
     id="g31"
     transform="translate(0,-12)" /><g
     id="g33"
     transform="translate(0,-12)" /><g
     id="g35"
     transform="translate(0,-12)" /><g
     id="g37"
     transform="translate(0,-12)" /><g
     id="g39"
     transform="translate(0,-12)" /><g
     id="g41"
     transform="translate(0,-12)" /><g
     id="g43"
     transform="translate(0,-12)" /><g
     id="g45"
     transform="translate(0,-12)" /><g
     id="g47"
     transform="translate(0,-12)" /><g
     id="g49"
     transform="translate(0,-12)" /></svg>